<mxfile host="app.diagrams.net" modified="2022-05-23T13:03:03.979Z" agent="5.0 (Windows NT 10.0; Win64; x64) AppleWebKit/537.36 (KHTML, like Gecko) Chrome/101.0.4951.67 Safari/537.36" etag="70pW17bojH1nPCzjqVVp" version="17.4.6" type="gitlab">
  <diagram id="89NjKa_Q9pvUgUptQ8B9" name="Page-1">
    <mxGraphModel dx="978" dy="634" grid="0" gridSize="10" guides="1" tooltips="1" connect="1" arrows="1" fold="1" page="1" pageScale="1" pageWidth="827" pageHeight="1169" background="none" math="0" shadow="0">
      <root>
        <mxCell id="0" />
        <mxCell id="1" parent="0" />
        <mxCell id="mWvaYPWLE09Bp1hTShdr-10" value="" style="edgeStyle=orthogonalEdgeStyle;rounded=0;orthogonalLoop=1;jettySize=auto;html=1;" edge="1" parent="1" source="mWvaYPWLE09Bp1hTShdr-2" target="mWvaYPWLE09Bp1hTShdr-9">
          <mxGeometry relative="1" as="geometry" />
        </mxCell>
        <mxCell id="mWvaYPWLE09Bp1hTShdr-2" value="main.c" style="rounded=1;whiteSpace=wrap;html=1;" vertex="1" parent="1">
          <mxGeometry x="374" y="104" width="130" height="20" as="geometry" />
        </mxCell>
        <mxCell id="mWvaYPWLE09Bp1hTShdr-3" value="&lt;code&gt;&lt;span class=&quot;nf&quot;&gt;SystemClock_Config&lt;/span&gt;&lt;span class=&quot;p&quot;&gt;(&lt;/span&gt;&lt;span class=&quot;kt&quot;&gt;void&lt;/span&gt;&lt;span class=&quot;p&quot;&gt;);&lt;/span&gt;&lt;/code&gt;" style="rounded=1;whiteSpace=wrap;html=1;" vertex="1" parent="1">
          <mxGeometry x="164" y="274" width="180" height="80" as="geometry" />
        </mxCell>
        <mxCell id="mWvaYPWLE09Bp1hTShdr-4" value="&lt;code&gt;&lt;span class=&quot;nf&quot;&gt;MX_GPIO_Init&lt;/span&gt;&lt;span class=&quot;p&quot;&gt;(&lt;/span&gt;&lt;span class=&quot;kt&quot;&gt;void&lt;/span&gt;&lt;span class=&quot;p&quot;&gt;);&lt;/span&gt;&lt;/code&gt;" style="rounded=1;whiteSpace=wrap;html=1;" vertex="1" parent="1">
          <mxGeometry x="564" y="274" width="180" height="80" as="geometry" />
        </mxCell>
        <mxCell id="mWvaYPWLE09Bp1hTShdr-5" value="&#xa;&#xa;&lt;code&gt;&lt;span class=&quot;nf&quot;&gt;MX_USART2_UART_Init&lt;/span&gt;&lt;span class=&quot;p&quot;&gt;(&lt;/span&gt;&lt;span class=&quot;kt&quot;&gt;void&lt;/span&gt;&lt;span class=&quot;p&quot;&gt;);&lt;/span&gt;&lt;/code&gt;&#xa;&#xa;" style="rounded=1;whiteSpace=wrap;html=1;" vertex="1" parent="1">
          <mxGeometry x="164" y="404" width="190" height="90" as="geometry" />
        </mxCell>
        <mxCell id="mWvaYPWLE09Bp1hTShdr-6" value="&#xa;&#xa;&lt;code&gt;&lt;span class=&quot;nf&quot;&gt;MX_I2C1_Init&lt;/span&gt;&lt;span class=&quot;p&quot;&gt;(&lt;/span&gt;&lt;span class=&quot;kt&quot;&gt;void&lt;/span&gt;&lt;span class=&quot;p&quot;&gt;);&lt;/span&gt;&lt;/code&gt;&#xa;&#xa;" style="rounded=1;whiteSpace=wrap;html=1;" vertex="1" parent="1">
          <mxGeometry x="584" y="404" width="170" height="90" as="geometry" />
        </mxCell>
        <mxCell id="mWvaYPWLE09Bp1hTShdr-7" value="&lt;code&gt;&lt;span class=&quot;nf&quot;&gt;debugPrintln&lt;/span&gt;&lt;span class=&quot;p&quot;&gt;(&lt;/span&gt;&lt;span class=&quot;n&quot;&gt;UART_HandleTypeDef&lt;/span&gt; &lt;span class=&quot;o&quot;&gt;*&lt;/span&gt;&lt;span class=&quot;n&quot;&gt;uart_handle&lt;/span&gt;&lt;span class=&quot;p&quot;&gt;,&lt;/span&gt; &lt;span class=&quot;kt&quot;&gt;char&lt;/span&gt; &lt;span class=&quot;n&quot;&gt;_out&lt;/span&gt;&lt;span class=&quot;p&quot;&gt;[]);&lt;/span&gt;&lt;/code&gt;" style="rounded=1;whiteSpace=wrap;html=1;" vertex="1" parent="1">
          <mxGeometry x="237.75" y="524" width="402.5" height="63" as="geometry" />
        </mxCell>
        <mxCell id="mWvaYPWLE09Bp1hTShdr-11" style="edgeStyle=orthogonalEdgeStyle;rounded=0;orthogonalLoop=1;jettySize=auto;html=1;" edge="1" parent="1" source="mWvaYPWLE09Bp1hTShdr-9" target="mWvaYPWLE09Bp1hTShdr-3">
          <mxGeometry relative="1" as="geometry" />
        </mxCell>
        <mxCell id="mWvaYPWLE09Bp1hTShdr-12" style="edgeStyle=orthogonalEdgeStyle;rounded=0;orthogonalLoop=1;jettySize=auto;html=1;entryX=0.5;entryY=0;entryDx=0;entryDy=0;" edge="1" parent="1" source="mWvaYPWLE09Bp1hTShdr-9" target="mWvaYPWLE09Bp1hTShdr-4">
          <mxGeometry relative="1" as="geometry" />
        </mxCell>
        <mxCell id="mWvaYPWLE09Bp1hTShdr-13" style="edgeStyle=orthogonalEdgeStyle;rounded=0;orthogonalLoop=1;jettySize=auto;html=1;exitX=0.75;exitY=1;exitDx=0;exitDy=0;entryX=0;entryY=0.5;entryDx=0;entryDy=0;" edge="1" parent="1" source="mWvaYPWLE09Bp1hTShdr-9" target="mWvaYPWLE09Bp1hTShdr-6">
          <mxGeometry relative="1" as="geometry" />
        </mxCell>
        <mxCell id="mWvaYPWLE09Bp1hTShdr-14" style="edgeStyle=orthogonalEdgeStyle;rounded=0;orthogonalLoop=1;jettySize=auto;html=1;exitX=0.25;exitY=1;exitDx=0;exitDy=0;entryX=1;entryY=0.5;entryDx=0;entryDy=0;" edge="1" parent="1" source="mWvaYPWLE09Bp1hTShdr-9" target="mWvaYPWLE09Bp1hTShdr-5">
          <mxGeometry relative="1" as="geometry" />
        </mxCell>
        <mxCell id="mWvaYPWLE09Bp1hTShdr-16" style="edgeStyle=orthogonalEdgeStyle;rounded=0;orthogonalLoop=1;jettySize=auto;html=1;entryX=0.5;entryY=0;entryDx=0;entryDy=0;" edge="1" parent="1" source="mWvaYPWLE09Bp1hTShdr-9" target="mWvaYPWLE09Bp1hTShdr-7">
          <mxGeometry relative="1" as="geometry" />
        </mxCell>
        <mxCell id="mWvaYPWLE09Bp1hTShdr-21" style="edgeStyle=orthogonalEdgeStyle;rounded=0;orthogonalLoop=1;jettySize=auto;html=1;exitX=0.25;exitY=0;exitDx=0;exitDy=0;entryX=1;entryY=0.25;entryDx=0;entryDy=0;" edge="1" parent="1" source="mWvaYPWLE09Bp1hTShdr-9" target="mWvaYPWLE09Bp1hTShdr-19">
          <mxGeometry relative="1" as="geometry" />
        </mxCell>
        <mxCell id="mWvaYPWLE09Bp1hTShdr-22" style="edgeStyle=orthogonalEdgeStyle;rounded=0;orthogonalLoop=1;jettySize=auto;html=1;exitX=0.75;exitY=0;exitDx=0;exitDy=0;entryX=0;entryY=0.5;entryDx=0;entryDy=0;" edge="1" parent="1" source="mWvaYPWLE09Bp1hTShdr-9" target="mWvaYPWLE09Bp1hTShdr-17">
          <mxGeometry relative="1" as="geometry" />
        </mxCell>
        <mxCell id="mWvaYPWLE09Bp1hTShdr-9" value="main(void);" style="rounded=1;whiteSpace=wrap;html=1;" vertex="1" parent="1">
          <mxGeometry x="379" y="172" width="119" height="52" as="geometry" />
        </mxCell>
        <mxCell id="mWvaYPWLE09Bp1hTShdr-17" value="Error_Handler(void);" style="rounded=1;whiteSpace=wrap;html=1;" vertex="1" parent="1">
          <mxGeometry x="651" y="108" width="155" height="53" as="geometry" />
        </mxCell>
        <mxCell id="mWvaYPWLE09Bp1hTShdr-19" value="&lt;code&gt;&lt;span class=&quot;nf&quot;&gt;assert_failed&lt;/span&gt;&lt;span class=&quot;p&quot;&gt;(&lt;/span&gt;&lt;span class=&quot;kt&quot;&gt;uint8_t&lt;/span&gt; &lt;span class=&quot;o&quot;&gt;*&lt;/span&gt;&lt;span class=&quot;n&quot;&gt;file&lt;/span&gt;&lt;span class=&quot;p&quot;&gt;,&lt;/span&gt; &lt;span class=&quot;kt&quot;&gt;uint32_t&lt;/span&gt; &lt;span class=&quot;n&quot;&gt;line&lt;/span&gt;&lt;span class=&quot;p&quot;&gt;);&lt;/span&gt;&lt;/code&gt;" style="rounded=1;whiteSpace=wrap;html=1;" vertex="1" parent="1">
          <mxGeometry x="65" y="125" width="207" height="37" as="geometry" />
        </mxCell>
      </root>
    </mxGraphModel>
  </diagram>
</mxfile>
